<svg width="24" height="24" viewBox="0 0 24 24" fill="none" xmlns="http://www.w3.org/2000/svg">
<path d="M15.2059 16C15.2059 16.2761 15.4297 16.5 15.7059 16.5C15.982 16.5 16.2059 16.2761 16.2059 16H15.2059ZM20.5 16C20.5 16.2761 20.7239 16.5 21 16.5C21.2761 16.5 21.5 16.2761 21.5 16H20.5ZM18.3529 12.0844L17.9334 12.3563L18.3529 13.0037L18.7725 12.3563L18.3529 12.0844ZM13.8422 13.3412L13.3538 13.2342L13.8422 13.3412ZM7.48644 10.726L6.99661 10.8264L7.48644 10.726ZM20.9982 8.00284L21.4177 8.27477L20.9982 8.00284ZM15.7061 8.00028L16.1257 7.72835L15.7061 8.00028ZM2.5 8.73335V15.4753H3.5V8.73335H2.5ZM3.52471 16.5H4.18466V15.5H3.52471V16.5ZM4.35226 7.66878H3.56457V8.66878H4.35226V7.66878ZM15.2059 8.00034V16H16.2059V8.00034H15.2059ZM20.5 8.00338V16H21.5V8.00338H20.5ZM8.06846 11.0757L7.97627 10.6257L6.99661 10.8264L7.08881 11.2764L8.06846 11.0757ZM7.97767 13.4483L8.05462 13.0971L7.0778 12.883L7.00085 13.2342L7.97767 13.4483ZM8.85294 8.73335V15.4753H9.85294V8.73335H8.85294ZM9.87765 16.5H10.5376V15.5H9.87765V16.5ZM10.7052 7.66878H9.91751V8.66878H10.7052V7.66878ZM14.4214 11.0757L14.3292 10.6257L13.3496 10.8264L13.4417 11.2764L14.4214 11.0757ZM14.3306 13.4483L14.4076 13.0971L13.4307 12.883L13.3538 13.2342L14.3306 13.4483ZM15.2865 8.27221L17.9334 12.3563L18.7725 11.8125L16.1257 7.72835L15.2865 8.27221ZM18.7725 12.3563L21.4177 8.27477L20.5786 7.73091L17.9334 11.8125L18.7725 12.3563ZM12.9808 15.635C13.6659 15.0804 14.1419 14.3093 14.3306 13.4483L13.3538 13.2342C13.2137 13.8734 12.8603 14.446 12.3516 14.8578L12.9808 15.635ZM14.3292 10.6257C14.1425 9.71422 13.6192 8.90658 12.8636 8.36374L12.2801 9.17587C12.8315 9.57198 13.2133 10.1613 13.3496 10.8264L14.3292 10.6257ZM10.7052 8.66878C11.2703 8.66878 11.8212 8.84614 12.2801 9.17587L12.8636 8.36374C12.2346 7.91185 11.4797 7.66878 10.7052 7.66878V8.66878ZM13.4417 11.2764C13.5504 11.8068 13.5467 12.3542 13.4307 12.883L14.4076 13.0971C14.5534 12.4317 14.5581 11.7431 14.4214 11.0757L13.4417 11.2764ZM10.5376 16.5C11.427 16.5 12.2895 16.1947 12.9808 15.635L12.3516 14.8578C11.8383 15.2733 11.198 15.5 10.5376 15.5V16.5ZM6.62785 15.635C7.31295 15.0804 7.78897 14.3093 7.97767 13.4483L7.00085 13.2342C6.86075 13.8734 6.50732 14.446 5.99866 14.8578L6.62785 15.635ZM7.97627 10.6257C7.78956 9.71422 7.26626 8.90658 6.51066 8.36374L5.9272 9.17587C6.47854 9.57198 6.86038 10.1613 6.99661 10.8264L7.97627 10.6257ZM21.5 8.00338C21.5 7.50424 20.85 7.31218 20.5786 7.73091L21.4177 8.27477C21.1475 8.69183 20.5 8.50053 20.5 8.00338H21.5ZM16.2059 8.00034C16.2059 8.4983 15.5573 8.69009 15.2865 8.27221L16.1257 7.72835C15.8547 7.31031 15.2059 7.50217 15.2059 8.00034H16.2059ZM4.35226 8.66878C4.91738 8.66878 5.46824 8.84614 5.9272 9.17587L6.51066 8.36374C5.88168 7.91185 5.12674 7.66878 4.35226 7.66878V8.66878ZM7.08881 11.2764C7.19747 11.8068 7.19372 12.3542 7.0778 12.883L8.05462 13.0971C8.20046 12.4317 8.20517 11.7431 8.06846 11.0757L7.08881 11.2764ZM4.18466 16.5C5.07409 16.5 5.93655 16.1947 6.62785 15.635L5.99866 14.8578C5.48539 15.2733 4.84503 15.5 4.18466 15.5V16.5ZM8.85294 15.4753C8.85294 16.0412 9.31172 16.5 9.87765 16.5V15.5C9.86401 15.5 9.85294 15.4889 9.85294 15.4753H8.85294ZM2.5 15.4753C2.5 16.0412 2.95878 16.5 3.52471 16.5V15.5C3.51106 15.5 3.5 15.4889 3.5 15.4753H2.5ZM9.85294 8.73335C9.85294 8.69769 9.88185 8.66878 9.91751 8.66878V7.66878C9.32956 7.66878 8.85294 8.1454 8.85294 8.73335H9.85294ZM3.5 8.73335C3.5 8.69769 3.52891 8.66878 3.56457 8.66878V7.66878C2.97662 7.66878 2.5 8.1454 2.5 8.73335H3.5Z" fill="black"/>
<mask id="mask0" mask-type="alpha" maskUnits="userSpaceOnUse" x="2" y="7" width="20" height="10">
<path d="M15.2059 16C15.2059 16.2761 15.4297 16.5 15.7059 16.5C15.982 16.5 16.2059 16.2761 16.2059 16H15.2059ZM20.5 16C20.5 16.2761 20.7239 16.5 21 16.5C21.2761 16.5 21.5 16.2761 21.5 16H20.5ZM18.3529 12.0844L17.9334 12.3563L18.3529 13.0037L18.7725 12.3563L18.3529 12.0844ZM13.8394 10.726L14.3292 10.6257L13.8394 10.726ZM13.9192 12.9901L13.4307 12.883L13.9192 12.9901ZM7.48926 13.3412L7.00085 13.2342L7.48926 13.3412ZM20.9982 8.00284L21.4177 8.27477L20.9982 8.00284ZM15.7061 8.00028L15.2865 8.27221L15.7061 8.00028ZM2.5 8.73335V15.4753H3.5V8.73335H2.5ZM3.52471 16.5H4.18466V15.5H3.52471V16.5ZM4.35226 7.66878H3.56457V8.66878H4.35226V7.66878ZM15.2059 8.00034V16H16.2059V8.00034H15.2059ZM20.5 8.00338V16H21.5V8.00338H20.5ZM8.06846 11.0757L7.97627 10.6257L6.99661 10.8263L7.08881 11.2764L8.06846 11.0757ZM7.97767 13.4483L8.05462 13.0971L7.0778 12.883L7.00085 13.2342L7.97767 13.4483ZM8.85294 8.73335V15.4753H9.85294V8.73335H8.85294ZM9.87765 16.5H10.5376V15.5H9.87765V16.5ZM10.7052 7.66878H9.91751V8.66878H10.7052V7.66878ZM14.4214 11.0757L14.3292 10.6257L13.3496 10.8263L13.4417 11.2764L14.4214 11.0757ZM14.3306 13.4483L14.4076 13.0971L13.4307 12.883L13.3538 13.2342L14.3306 13.4483ZM15.2865 8.27221L17.9334 12.3563L18.7725 11.8125L16.1257 7.72835L15.2865 8.27221ZM18.7725 12.3563L21.4177 8.27477L20.5786 7.73091L17.9334 11.8125L18.7725 12.3563ZM12.9808 15.635C13.6659 15.0804 14.1419 14.3093 14.3306 13.4483L13.3538 13.2342C13.2137 13.8734 12.8603 14.446 12.3516 14.8578L12.9808 15.635ZM14.3292 10.6257C14.1425 9.71421 13.6192 8.90658 12.8636 8.36374L12.2801 9.17587C12.8315 9.57198 13.2133 10.1613 13.3496 10.8263L14.3292 10.6257ZM10.7052 8.66878C11.2703 8.66878 11.8212 8.84614 12.2801 9.17587L12.8636 8.36374C12.2346 7.91185 11.4797 7.66878 10.7052 7.66878V8.66878ZM13.4417 11.2764C13.5504 11.8068 13.5467 12.3542 13.4307 12.883L14.4076 13.0971C14.5534 12.4317 14.5581 11.7431 14.4214 11.0757L13.4417 11.2764ZM10.5376 16.5C11.427 16.5 12.2895 16.1947 12.9808 15.635L12.3516 14.8578C11.8383 15.2733 11.198 15.5 10.5376 15.5V16.5ZM6.62785 15.635C7.31295 15.0804 7.78897 14.3093 7.97767 13.4483L7.00085 13.2342C6.86075 13.8734 6.50732 14.446 5.99866 14.8578L6.62785 15.635ZM7.97627 10.6257C7.78956 9.71421 7.26626 8.90658 6.51066 8.36374L5.9272 9.17587C6.47854 9.57198 6.86038 10.1613 6.99661 10.8263L7.97627 10.6257ZM21.5 8.00338C21.5 7.50424 20.85 7.31218 20.5786 7.73091L21.4177 8.27477C21.1475 8.69183 20.5 8.50053 20.5 8.00338H21.5ZM16.2059 8.00034C16.2059 8.4983 15.5573 8.69009 15.2865 8.27221L16.1257 7.72835C15.8547 7.31031 15.2059 7.50217 15.2059 8.00034H16.2059ZM4.35226 8.66878C4.91738 8.66878 5.46824 8.84614 5.9272 9.17587L6.51066 8.36374C5.88168 7.91185 5.12674 7.66878 4.35226 7.66878V8.66878ZM7.08881 11.2764C7.19747 11.8068 7.19372 12.3542 7.0778 12.883L8.05462 13.0971C8.20046 12.4317 8.20517 11.7431 8.06846 11.0757L7.08881 11.2764ZM4.18466 16.5C5.07409 16.5 5.93655 16.1947 6.62785 15.635L5.99866 14.8578C5.48539 15.2733 4.84503 15.5 4.18466 15.5V16.5ZM8.85294 15.4753C8.85294 16.0412 9.31172 16.5 9.87765 16.5V15.5C9.86401 15.5 9.85294 15.4889 9.85294 15.4753H8.85294ZM2.5 15.4753C2.5 16.0412 2.95878 16.5 3.52471 16.5V15.5C3.51106 15.5 3.5 15.4889 3.5 15.4753H2.5ZM9.85294 8.73335C9.85294 8.69769 9.88185 8.66878 9.91751 8.66878V7.66878C9.32956 7.66878 8.85294 8.1454 8.85294 8.73335H9.85294ZM3.5 8.73335C3.5 8.69769 3.52891 8.66878 3.56457 8.66878V7.66878C2.97662 7.66878 2.5 8.1454 2.5 8.73335H3.5Z" fill="black"/>
</mask>
<g mask="url(#mask0)">
<path d="M1.94118 15L5.11765 17" stroke="#C70000" stroke-width="0.5"/>
</g>
</svg>
