<svg width="24" height="24" viewBox="0 0 24 24" fill="none" xmlns="http://www.w3.org/2000/svg">
<path d="M14.5 16C14.5 16.2761 14.7239 16.5 15 16.5C15.2761 16.5 15.5 16.2761 15.5 16H14.5ZM19.5 16C19.5 16.2761 19.7239 16.5 20 16.5C20.2761 16.5 20.5 16.2761 20.5 16H19.5ZM17.5 12.0844L17.0735 12.3454L17.5 13.0421L17.9265 12.3454L17.5 12.0844ZM13.2242 13.4167L12.7346 13.3153L13.2242 13.4167ZM13.2218 10.6464L12.7309 10.7414L13.2218 10.6464ZM7.22179 10.6464L6.7309 10.7414L7.22179 10.6464ZM19.9981 8.00303L19.5717 7.742L19.9981 8.00303ZM15.0002 8.0003L15.4266 7.73927L15.0002 8.0003ZM2.5 8.68351V15.5212H3.5V8.68351H2.5ZM3.4788 16.5H4.05142V15.5H3.4788V16.5ZM4.21888 7.66878H3.51473V8.66878H4.21888V7.66878ZM14.5 8.00035V16H15.5V8.00035H14.5ZM19.5 8.00355V16H20.5V8.00355H19.5ZM7.81888 11.1003L7.71269 10.5514L6.7309 10.7414L6.83709 11.2903L7.81888 11.1003ZM7.71386 13.518L7.80607 13.0725L6.82682 12.8698L6.73462 13.3153L7.71386 13.518ZM8.5 8.68351V15.5212H9.5V8.68351H8.5ZM9.4788 16.5H10.0514V15.5H9.4788V16.5ZM10.2189 7.66878H9.51473V8.66878H10.2189V7.66878ZM13.8189 11.1003L13.7127 10.5514L12.7309 10.7414L12.8371 11.2903L13.8189 11.1003ZM13.7139 13.518L13.8061 13.0725L12.8268 12.8698L12.7346 13.3153L13.7139 13.518ZM14.5737 8.26133L17.0735 12.3454L17.9265 11.8234L15.4266 7.73927L14.5737 8.26133ZM17.9265 12.3454L20.4246 8.26405L19.5717 7.742L17.0735 11.8234L17.9265 12.3454ZM12.4854 15.5996C13.114 15.0608 13.5461 14.3287 13.7139 13.518L12.7346 13.3153C12.6117 13.9093 12.2951 14.4456 11.8346 14.8403L12.4854 15.5996ZM13.7127 10.5514C13.5465 9.69246 13.0697 8.9248 12.3734 8.39511L11.7679 9.191C12.2686 9.57185 12.6114 10.1238 12.7309 10.7414L13.7127 10.5514ZM10.2189 8.66878C10.7784 8.66878 11.3226 8.85222 11.7679 9.191L12.3734 8.39511C11.754 7.92392 10.9971 7.66878 10.2189 7.66878V8.66878ZM12.8371 11.2903C12.9381 11.8123 12.9346 12.3492 12.8268 12.8698L13.8061 13.0725C13.9406 12.4224 13.945 11.7521 13.8189 11.1003L12.8371 11.2903ZM10.0514 16.5C10.9442 16.5 11.8076 16.1806 12.4854 15.5996L11.8346 14.8403C11.338 15.266 10.7055 15.5 10.0514 15.5V16.5ZM6.48543 15.5996C7.114 15.0608 7.54605 14.3287 7.71386 13.518L6.73462 13.3153C6.61168 13.9093 6.29515 14.4456 5.83463 14.8403L6.48543 15.5996ZM7.71269 10.5514C7.54651 9.69246 7.06971 8.9248 6.37338 8.39511L5.76795 9.191C6.2686 9.57185 6.61141 10.1238 6.7309 10.7414L7.71269 10.5514ZM20.5 8.00355C20.5 7.49803 19.8359 7.31036 19.5717 7.742L20.4246 8.26405C20.1615 8.69397 19.5 8.50705 19.5 8.00355H20.5ZM15.5 8.00035C15.5 8.50504 14.8372 8.69179 14.5737 8.26133L15.4266 7.73927C15.1631 7.30865 14.5 7.49546 14.5 8.00035H15.5ZM4.21888 8.66878C4.77845 8.66878 5.32259 8.85222 5.76795 9.191L6.37338 8.39511C5.75396 7.92392 4.99715 7.66878 4.21888 7.66878V8.66878ZM6.83709 11.2903C6.93809 11.8123 6.9346 12.3492 6.82682 12.8698L7.80607 13.0725C7.94063 12.4224 7.94498 11.7521 7.81888 11.1003L6.83709 11.2903ZM4.05142 16.5C4.94422 16.5 5.80756 16.1806 6.48543 15.5996L5.83463 14.8403C5.33802 15.266 4.70551 15.5 4.05142 15.5V16.5ZM8.5 15.5212C8.5 16.0618 8.93822 16.5 9.4788 16.5V15.5C9.49051 15.5 9.5 15.5095 9.5 15.5212H8.5ZM2.5 15.5212C2.5 16.0618 2.93822 16.5 3.4788 16.5V15.5C3.49051 15.5 3.5 15.5095 3.5 15.5212H2.5ZM9.5 8.68351C9.5 8.68055 9.5005 8.679 9.50095 8.67793C9.50154 8.67653 9.50262 8.67479 9.50431 8.67309C9.50601 8.6714 9.50775 8.67032 9.50915 8.66973C9.51022 8.66928 9.51177 8.66878 9.51473 8.66878V7.66878C8.95431 7.66878 8.5 8.12309 8.5 8.68351H9.5ZM3.5 8.68351C3.5 8.68055 3.5005 8.679 3.50095 8.67793C3.50154 8.67653 3.50262 8.67479 3.50431 8.67309C3.50601 8.6714 3.50775 8.67032 3.50915 8.66973C3.51022 8.66928 3.51177 8.66878 3.51473 8.66878V7.66878C2.95431 7.66878 2.5 8.12309 2.5 8.68351H3.5Z" fill="#1C7925"/>
<mask id="mask0" mask-type="alpha" maskUnits="userSpaceOnUse" x="2" y="7" width="19" height="10">
<path d="M14.5 16C14.5 16.2761 14.7239 16.5 15 16.5C15.2761 16.5 15.5 16.2761 15.5 16H14.5ZM19.5 16C19.5 16.2761 19.7239 16.5 20 16.5C20.2761 16.5 20.5 16.2761 20.5 16H19.5ZM17.5 12.0844L17.0735 12.3454L17.5 13.0421L17.9265 12.3454L17.5 12.0844ZM13.2242 13.4167L13.7139 13.518L13.2242 13.4167ZM13.2218 10.6464L12.7309 10.7414L13.2218 10.6464ZM13.328 11.1953L12.8371 11.2903L13.328 11.1953ZM13.3164 12.9712L12.8268 12.8698L13.3164 12.9712ZM7.22424 13.4167L6.73462 13.3153L7.22424 13.4167ZM19.9981 8.00303L19.5717 7.742L19.9981 8.00303ZM15.0002 8.0003L15.4266 7.73927L15.0002 8.0003ZM7.31644 12.9712L6.82682 12.8698L7.31644 12.9712ZM2.5 8.68351V15.5212H3.5V8.68351H2.5ZM3.4788 16.5H4.05142V15.5H3.4788V16.5ZM4.21888 7.66878H3.51473V8.66878H4.21888V7.66878ZM14.5 8.00035V16H15.5V8.00035H14.5ZM19.5 8.00355V16H20.5V8.00355H19.5ZM7.81888 11.1003L7.71269 10.5514L6.7309 10.7414L6.83709 11.2903L7.81888 11.1003ZM7.71386 13.518L7.80607 13.0725L6.82682 12.8698L6.73462 13.3153L7.71386 13.518ZM8.5 8.68351V15.5212H9.5V8.68351H8.5ZM9.4788 16.5H10.0514V15.5H9.4788V16.5ZM10.2189 7.66878H9.51473V8.66878H10.2189V7.66878ZM13.8189 11.1003L13.7127 10.5514L12.7309 10.7414L12.8371 11.2903L13.8189 11.1003ZM13.7139 13.518L13.8061 13.0725L12.8268 12.8698L12.7346 13.3153L13.7139 13.518ZM14.5737 8.26133L17.0735 12.3454L17.9265 11.8234L15.4266 7.73927L14.5737 8.26133ZM17.9265 12.3454L20.4246 8.26405L19.5717 7.742L17.0735 11.8234L17.9265 12.3454ZM12.4854 15.5996C13.114 15.0608 13.5461 14.3287 13.7139 13.518L12.7346 13.3153C12.6117 13.9093 12.2951 14.4456 11.8346 14.8403L12.4854 15.5996ZM13.7127 10.5514C13.5465 9.69245 13.0697 8.9248 12.3734 8.39511L11.7679 9.191C12.2686 9.57185 12.6114 10.1238 12.7309 10.7414L13.7127 10.5514ZM10.2189 8.66878C10.7784 8.66878 11.3226 8.85222 11.7679 9.191L12.3734 8.39511C11.754 7.92391 10.9971 7.66878 10.2189 7.66878V8.66878ZM12.8371 11.2903C12.9381 11.8123 12.9346 12.3492 12.8268 12.8698L13.8061 13.0725C13.9406 12.4224 13.945 11.7521 13.8189 11.1003L12.8371 11.2903ZM10.0514 16.5C10.9442 16.5 11.8076 16.1806 12.4854 15.5996L11.8346 14.8403C11.338 15.266 10.7055 15.5 10.0514 15.5V16.5ZM6.48543 15.5996C7.114 15.0608 7.54605 14.3287 7.71386 13.518L6.73462 13.3153C6.61168 13.9093 6.29515 14.4456 5.83463 14.8403L6.48543 15.5996ZM7.71269 10.5514C7.54651 9.69245 7.06971 8.9248 6.37338 8.39511L5.76795 9.191C6.2686 9.57185 6.61141 10.1238 6.7309 10.7414L7.71269 10.5514ZM20.5 8.00355C20.5 7.49803 19.8359 7.31036 19.5717 7.742L20.4246 8.26405C20.1615 8.69397 19.5 8.50705 19.5 8.00355H20.5ZM15.5 8.00035C15.5 8.50504 14.8372 8.69179 14.5737 8.26133L15.4266 7.73927C15.1631 7.30865 14.5 7.49546 14.5 8.00035H15.5ZM4.21888 8.66878C4.77845 8.66878 5.32259 8.85222 5.76795 9.191L6.37338 8.39511C5.75396 7.92391 4.99715 7.66878 4.21888 7.66878V8.66878ZM6.83709 11.2903C6.93809 11.8123 6.9346 12.3492 6.82682 12.8698L7.80607 13.0725C7.94063 12.4224 7.94498 11.7521 7.81888 11.1003L6.83709 11.2903ZM4.05142 16.5C4.94422 16.5 5.80756 16.1806 6.48543 15.5996L5.83463 14.8403C5.33802 15.266 4.70551 15.5 4.05142 15.5V16.5ZM8.5 15.5212C8.5 16.0618 8.93822 16.5 9.4788 16.5V15.5C9.49051 15.5 9.5 15.5095 9.5 15.5212H8.5ZM2.5 15.5212C2.5 16.0618 2.93822 16.5 3.4788 16.5V15.5C3.49051 15.5 3.5 15.5095 3.5 15.5212H2.5ZM9.5 8.68351C9.5 8.68055 9.5005 8.679 9.50095 8.67793C9.50154 8.67653 9.50262 8.67479 9.50431 8.67309C9.50601 8.6714 9.50775 8.67032 9.50915 8.66973C9.51022 8.66928 9.51177 8.66878 9.51473 8.66878V7.66878C8.95431 7.66878 8.5 8.12309 8.5 8.68351H9.5ZM3.5 8.68351C3.5 8.68055 3.5005 8.679 3.50095 8.67793C3.50154 8.67653 3.50262 8.67479 3.50431 8.67309C3.50601 8.6714 3.50775 8.67032 3.50915 8.66973C3.51022 8.66928 3.51177 8.66878 3.51473 8.66878V7.66878C2.95431 7.66878 2.5 8.12309 2.5 8.68351H3.5Z" fill="black"/>
</mask>
<g mask="url(#mask0)">
<path d="M0 16H24L0 13H24L0 10H24L0 7" stroke="#C70000" stroke-width="0.5"/>
</g>
</svg>
