<svg width="24" height="24" viewBox="0 0 24 24" fill="none" xmlns="http://www.w3.org/2000/svg">
<rect x="4" y="10" width="1" height="4" fill="black"/>
<rect x="5" y="10" width="2" height="1" fill="black"/>
<rect x="5" y="14" width="2" height="1" fill="black"/>
<rect x="7" y="11" width="1" height="3" fill="black"/>
<path d="M6 14L7 13V14H6Z" fill="black"/>
<path d="M4 15L5 14V15H4Z" fill="black"/>
<path d="M8 14L7 15L7 14L8 14Z" fill="black"/>
<path d="M5 14L4 15L4 14L5 14Z" fill="#FF0000"/>
<path d="M7 12L6 11L7 11L7 12Z" fill="black"/>
<path d="M7 10L8 11L7 11L7 10Z" fill="black"/>
<rect x="9" y="10" width="1" height="4" fill="black"/>
<rect x="10" y="10" width="2" height="1" fill="black"/>
<rect x="10" y="14" width="2" height="1" fill="black"/>
<rect x="12" y="11" width="1" height="3" fill="black"/>
<path d="M11 14L12 13V14H11Z" fill="black"/>
<path d="M9 15L10 14V15H9Z" fill="black"/>
<path d="M13 14L12 15L12 14L13 14Z" fill="black"/>
<path d="M10 14L9 15L9 14L10 14Z" fill="#FF0000"/>
<path d="M12 12L11 11L12 11L12 12Z" fill="black"/>
<path d="M12 10L13 11L12 11L12 10Z" fill="black"/>
<rect x="14" y="11" width="1" height="3" fill="black"/>
<rect x="19" y="11" width="1" height="3" fill="black"/>
<path d="M14 15L15 14V15H14Z" fill="black"/>
<path d="M19 15L20 14V15H19Z" fill="black"/>
<path d="M14 10L15 11L14 11L14 10Z" fill="black"/>
<path d="M15 11L16 12L15 12L15 11Z" fill="black"/>
<path d="M16 12L17 13L16 13L16 12Z" fill="black"/>
<path d="M17 13L18 12V13H17Z" fill="black"/>
<path d="M18 12L19 11V12H18Z" fill="black"/>
<path d="M19 11L20 10V11H19Z" fill="black"/>
<path d="M17 14L16 13L17 13L17 14Z" fill="black"/>
<path d="M16 13L15 12L16 12L16 13Z" fill="black"/>
<path d="M18 13L17 14L17 13L18 13Z" fill="black"/>
<path d="M19 12L18 13L18 12L19 12Z" fill="black"/>
<path d="M15 14L14 15L14 14L15 14Z" fill="#FF0000"/>
<path d="M20 14L19 15L19 14L20 14Z" fill="#FF0000"/>
<path d="M2 4L4 2H20L22 4M2 4V20M2 4L4 7L10 4V7H16L19 4L20 6L22 4M2 20L4 22H20L22 20M2 20L10 17V20H15.5L20 17L22 20M22 20V4" stroke="black"/>
</svg>
